<svg width="19" height="19" viewBox="0 0 19 19" fill="none" xmlns="http://www.w3.org/2000/svg">
<g clip-path="url(#clip0_4043_216)">
<path d="M13.7945 16.5408C13.6715 16.5413 13.5503 16.5123 13.4409 16.4562L9.52045 14.4038L5.60004 16.4562C5.47273 16.5232 5.3292 16.5531 5.18576 16.5425C5.04232 16.5319 4.90472 16.4813 4.78861 16.3964C4.6725 16.3115 4.58253 16.1958 4.52893 16.0623C4.47533 15.9288 4.46025 15.783 4.48541 15.6414L5.25412 11.3136L2.08704 8.23875C1.98823 8.14014 1.91814 8.01649 1.88428 7.88107C1.85042 7.74564 1.85408 7.60355 1.89487 7.47004C1.93942 7.33342 2.02138 7.21203 2.13144 7.11963C2.2415 7.02724 2.37525 6.96754 2.51752 6.94732L6.89915 6.30929L8.82861 2.36583C8.89155 2.23586 8.98983 2.12625 9.11219 2.04956C9.23455 1.97287 9.37604 1.93219 9.52045 1.93219C9.66485 1.93219 9.80634 1.97287 9.9287 2.04956C10.0511 2.12625 10.1493 2.23586 10.2123 2.36583L12.1648 6.30161L16.5464 6.93964C16.6887 6.95986 16.8225 7.01955 16.9325 7.11195C17.0426 7.20434 17.1245 7.32574 17.1691 7.46236C17.2099 7.59586 17.2135 7.73795 17.1797 7.87338C17.1458 8.00881 17.0757 8.13246 16.9769 8.23106L13.8098 11.3059L14.5785 15.6337C14.606 15.7778 14.5916 15.9268 14.5371 16.063C14.4826 16.1992 14.3903 16.317 14.2711 16.4024C14.1319 16.5 13.9643 16.5486 13.7945 16.5408Z" fill="#FBBB00"/>
</g>
<defs>
<clipPath id="clip0_4043_216">
<rect width="18.449" height="18.449" fill="white" transform="translate(0.295898 0.397949)"/>
</clipPath>
</defs>
</svg>
