<svg width="19" height="19" viewBox="0 0 19 19" fill="none" xmlns="http://www.w3.org/2000/svg">
<g clip-path="url(#clip0_4043_206)">
<path d="M13.6719 16.5408C13.549 16.5413 13.4277 16.5123 13.3183 16.4562L9.39789 14.4038L5.47748 16.4562C5.35018 16.5232 5.20665 16.5531 5.0632 16.5425C4.91976 16.5319 4.78217 16.4813 4.66605 16.3964C4.54994 16.3115 4.45997 16.1958 4.40637 16.0623C4.35277 15.9288 4.3377 15.783 4.36285 15.6414L5.13156 11.3136L1.96448 8.23875C1.86567 8.14014 1.79558 8.01649 1.76172 7.88107C1.72786 7.74564 1.73152 7.60355 1.77231 7.47004C1.81686 7.33342 1.89882 7.21203 2.00888 7.11963C2.11894 7.02724 2.25269 6.96754 2.39496 6.94732L6.77659 6.30929L8.70605 2.36583C8.769 2.23586 8.86728 2.12625 8.98963 2.04956C9.11199 1.97287 9.25348 1.93219 9.39789 1.93219C9.54229 1.93219 9.68378 1.97287 9.80614 2.04956C9.9285 2.12625 10.0268 2.23586 10.0897 2.36583L12.0422 6.30161L16.4239 6.93964C16.5661 6.95986 16.6999 7.01955 16.81 7.11195C16.92 7.20434 17.002 7.32574 17.0465 7.46236C17.0873 7.59586 17.091 7.73795 17.0571 7.87338C17.0233 8.00881 16.9532 8.13246 16.8544 8.23106L13.6873 11.3059L14.456 15.6337C14.4834 15.7778 14.4691 15.9268 14.4146 16.063C14.3601 16.1992 14.2678 16.317 14.1485 16.4024C14.0093 16.5 13.8417 16.5486 13.6719 16.5408Z" fill="#FBBB00"/>
</g>
<defs>
<clipPath id="clip0_4043_206">
<rect width="18.449" height="18.449" fill="white" transform="translate(0.17334 0.397949)"/>
</clipPath>
</defs>
</svg>
