<svg width="19" height="19" viewBox="0 0 19 19" fill="none" xmlns="http://www.w3.org/2000/svg">
<g clip-path="url(#clip0_4043_211)">
<path d="M13.7329 16.5408C13.61 16.5413 13.4887 16.5123 13.3793 16.4562L9.45892 14.4038L5.53851 16.4562C5.41121 16.5232 5.26768 16.5531 5.12424 16.5425C4.9808 16.5319 4.8432 16.4813 4.72709 16.3964C4.61098 16.3115 4.52101 16.1958 4.46741 16.0623C4.41381 15.9288 4.39873 15.783 4.42389 15.6414L5.19259 11.3136L2.02552 8.23875C1.92671 8.14014 1.85661 8.01649 1.82276 7.88107C1.7889 7.74564 1.79256 7.60355 1.83334 7.47004C1.8779 7.33342 1.95985 7.21203 2.06991 7.11963C2.17997 7.02724 2.31373 6.96754 2.456 6.94732L6.83763 6.30929L8.76709 2.36583C8.83003 2.23586 8.92831 2.12625 9.05067 2.04956C9.17303 1.97287 9.31451 1.93219 9.45892 1.93219C9.60333 1.93219 9.74482 1.97287 9.86717 2.04956C9.98953 2.12625 10.0878 2.23586 10.1508 2.36583L12.1033 6.30161L16.4849 6.93964C16.6272 6.95986 16.7609 7.01955 16.871 7.11195C16.9811 7.20434 17.063 7.32574 17.1076 7.46236C17.1483 7.59586 17.152 7.73795 17.1181 7.87338C17.0843 8.00881 17.0142 8.13246 16.9154 8.23106L13.7483 11.3059L14.517 15.6337C14.5445 15.7778 14.5301 15.9268 14.4756 16.063C14.4211 16.1992 14.3288 16.317 14.2095 16.4024C14.0703 16.5 13.9027 16.5486 13.7329 16.5408Z" fill="#FBBB00"/>
</g>
<defs>
<clipPath id="clip0_4043_211">
<rect width="18.449" height="18.449" fill="white" transform="translate(0.234619 0.397949)"/>
</clipPath>
</defs>
</svg>
