<svg width="19" height="19" viewBox="0 0 19 19" fill="none" xmlns="http://www.w3.org/2000/svg">
<g clip-path="url(#clip0_4043_226)">
<path d="M13.9168 16.5408C13.7938 16.5413 13.6726 16.5123 13.5632 16.4562L9.64276 14.4038L5.72235 16.4562C5.59505 16.5232 5.45152 16.5531 5.30808 16.5425C5.16464 16.5319 5.02704 16.4813 4.91093 16.3964C4.79481 16.3115 4.70484 16.1958 4.65125 16.0623C4.59765 15.9288 4.58257 15.783 4.60773 15.6414L5.37643 11.3136L2.20936 8.23875C2.11055 8.14014 2.04045 8.01649 2.00659 7.88107C1.97274 7.74564 1.9764 7.60355 2.01718 7.47004C2.06174 7.33342 2.14369 7.21203 2.25375 7.11963C2.36381 7.02724 2.49756 6.96754 2.63983 6.94732L7.02147 6.30929L8.95092 2.36583C9.01387 2.23586 9.11215 2.12625 9.23451 2.04956C9.35687 1.97287 9.49835 1.93219 9.64276 1.93219C9.78717 1.93219 9.92865 1.97287 10.051 2.04956C10.1734 2.12625 10.2717 2.23586 10.3346 2.36583L12.2871 6.30161L16.6687 6.93964C16.811 6.95986 16.9448 7.01955 17.0548 7.11195C17.1649 7.20434 17.2468 7.32574 17.2914 7.46236C17.3322 7.59586 17.3358 7.73795 17.302 7.87338C17.2681 8.00881 17.198 8.13246 17.0992 8.23106L13.9321 11.3059L14.7009 15.6337C14.7283 15.7778 14.7139 15.9268 14.6594 16.063C14.605 16.1992 14.5126 16.317 14.3934 16.4024C14.2542 16.5 14.0866 16.5486 13.9168 16.5408Z" fill="#E5E5E5"/>
</g>
<defs>
<clipPath id="clip0_4043_226">
<rect width="18.449" height="18.449" fill="white" transform="translate(0.418213 0.397949)"/>
</clipPath>
</defs>
</svg>
