<svg width="19" height="19" viewBox="0 0 19 19" fill="none" xmlns="http://www.w3.org/2000/svg">
<g clip-path="url(#clip0_4043_221)">
<path d="M13.8552 16.5408C13.7323 16.5413 13.6111 16.5123 13.5016 16.4562L9.58124 14.4038L5.66083 16.4562C5.53352 16.5232 5.38999 16.5531 5.24655 16.5425C5.10311 16.5319 4.96551 16.4813 4.8494 16.3964C4.73329 16.3115 4.64332 16.1958 4.58972 16.0623C4.53612 15.9288 4.52104 15.783 4.5462 15.6414L5.31491 11.3136L2.14783 8.23875C2.04902 8.14014 1.97893 8.01649 1.94507 7.88107C1.91121 7.74564 1.91487 7.60355 1.95566 7.47004C2.00021 7.33342 2.08217 7.21203 2.19223 7.11963C2.30229 7.02724 2.43604 6.96754 2.57831 6.94732L6.95994 6.30929L8.8894 2.36583C8.95235 2.23586 9.05063 2.12625 9.17298 2.04956C9.29534 1.97287 9.43683 1.93219 9.58124 1.93219C9.72564 1.93219 9.86713 1.97287 9.98949 2.04956C10.1118 2.12625 10.2101 2.23586 10.2731 2.36583L12.2256 6.30161L16.6072 6.93964C16.7495 6.95986 16.8832 7.01955 16.9933 7.11195C17.1034 7.20434 17.1853 7.32574 17.2299 7.46236C17.2707 7.59586 17.2743 7.73795 17.2405 7.87338C17.2066 8.00881 17.1365 8.13246 17.0377 8.23106L13.8706 11.3059L14.6393 15.6337C14.6668 15.7778 14.6524 15.9268 14.5979 16.063C14.5434 16.1992 14.4511 16.317 14.3319 16.4024C14.1927 16.5 14.025 16.5486 13.8552 16.5408Z" fill="#FBBB00"/>
</g>
<defs>
<clipPath id="clip0_4043_221">
<rect width="18.449" height="18.449" fill="white" transform="translate(0.356934 0.397949)"/>
</clipPath>
</defs>
</svg>
